<?xml version="1.0" encoding="UTF-8"?>
<svg preserveAspectRatio="none" version="1.1" viewBox="0 0 509 630" xmlns="http://www.w3.org/2000/svg">
<g fill="rgba(137, 176, 220, 0.4)" mask="url(#a)">
<path class="triangle-float1" d="m110.4 233.71c44.224-1.733 86.721-22.15 107.78-61.079 20.175-37.302 11.085-81.888-10.805-118.21-21.089-34.994-56.118-61.258-96.971-60.625-39.915 0.618-69.982 30.189-91.905 63.551-25.171 38.305-52.75 83.701-31.569 124.35 22.12 42.449 75.644 53.891 123.47 52.016"/>
<path class="triangle-float3" d="m10.905 53.361c14.959 0.749 28.982-8.448 35.83-21.769 6.355-12.361 2.282-26.643-4.792-38.607-6.917-11.698-17.451-21.689-31.038-21.991-14.045-0.312-26.984 8.123-33.52 20.558-6.133 11.669-2.877 25.151 3.407 36.739 6.674 12.306 16.132 24.37 30.113 25.07"/>
<path class="triangle-float2" d="m60.809 152.16c32.952-0.118 66.313-15.123 80.619-44.807 13.043-27.062-3.139-56.647-19.617-81.765-14.417-21.977-34.778-39.346-61.002-41.126-29.771-2.021-60.801 6.849-77.257 31.741-18.094 27.37-20.581 63.206-4.371 91.732 16.387 28.837 48.46 44.344 81.628 44.225"/>
<path class="triangle-float1" d="m485.1 175.12c35.052 0.416 67.844-17.574 85.733-47.72 18.265-30.781 19.017-68.663 2.022-100.16-17.914-33.203-50.037-57.899-87.755-58.738-39.085-0.87-76.633 20.054-94.789 54.677-17.089 32.587-6.97 71.013 12.506 102.23 18.179 29.14 47.94 49.305 82.283 49.712"/>
<path class="triangle-float1" d="m417.35 48.743c12.957-0.571 23.043-10.325 28.992-21.85 5.428-10.516 5.202-22.816-0.621-33.118-5.923-10.48-16.333-18.167-28.371-18.178-12.055-0.011-22.071 7.903-28.459 18.126-6.878 11.007-11.286 24.408-5.323 35.936 6.369 12.312 19.933 19.694 33.782 19.084"/>
<path class="triangle-float3" d="m519.31 229.82c41.119-1.914 75.627-26.54 97.482-61.423 23.578-37.633 39.965-84.359 18.052-122.98-22.113-38.978-70.72-49.056-115.53-48.847-44.358 0.206-90.025 12.393-113.69 49.914-25.116 39.828-25.711 91.774-0.897 131.79 23.656 38.149 69.744 53.638 114.58 51.55"/>
<path class="triangle-float1" d="m127.42 792.8c47.778-0.624 88.436-30.949 112.6-72.169 24.486-41.763 31.687-92.45 8.985-135.21-24.1-45.392-70.196-76.518-121.59-76.873-51.967-0.359-99.566 29.594-124.53 75.173-24.042 43.893-18.894 96.922 6.716 139.92 24.976 41.932 69.012 69.796 117.82 69.159"/>
<path class="triangle-float1" d="m112.33 753.3c40.733-2.665 78.983-20.046 100.19-54.927 22.074-36.313 26.382-81.849 5.435-118.82-21.222-37.46-62.569-58.322-105.62-58.022-42.524 0.296-79.77 23.925-103.11 59.475-26.289 40.047-47.286 91.048-22.687 132.16 24.224 40.48 78.72 43.223 125.79 40.143"/>
<path class="triangle-float1" d="m72.913 686.61c34.657 2.393 72.725-3.448 91.605-32.609 20.188-31.181 17.432-73.04-3.209-103.92-18.741-28.041-54.672-33.573-88.396-33.139-32.737 0.421-68.268 6.954-84.541 35.364-16.205 28.292-4.864 62.808 12.505 90.401 16.056 25.507 41.968 41.83 72.036 43.906"/>
<path class="triangle-float1" d="m436.35 608.8c17.612-1.353 31.599-12.822 40.832-27.881 9.784-15.956 16.771-35.234 8.008-51.773-9.2-17.364-29.189-25.282-48.84-25.297-19.679-0.015-38.441 8.596-48.966 25.224-11.321 17.884-15.476 41.045-4.399 59.081 10.699 17.42 32.982 22.212 53.365 20.646"/>
<path class="triangle-float2" d="m455.34 642.51c22.448-0.051 39.116-17.68 50.973-36.741 12.798-20.574 25.189-45.424 13.255-66.511-12.038-21.271-39.817-24.765-64.228-23.553-21.961 1.091-43.181 10.315-54.055 29.426-10.765 18.92-7.887 41.839 2.678 60.871 10.928 19.687 28.86 36.559 51.377 36.508"/>
<path class="triangle-float3" d="m490.11 695.31c32.284-1.175 65.3-9.233 82.77-36.407 18.845-29.313 20.9-67.403 3.31-97.486-17.439-29.825-51.533-43.659-86.08-44.066-35.371-0.416-70.71 12.131-89.663 41.998-20.303 31.996-25.103 74.348-4.241 105.98 19.388 29.4 58.71 31.259 93.904 29.979"/>
</g>
<defs>
<mask id="a">
<rect width="509" height="630" fill="#fff"/>
</mask>
<style>@keyframes float1 {
                    0%{transform: translate(0, 0)}
                    50%{transform: translate(-10px, 0)}
                    100%{transform: translate(0, 0)}
                }

                .triangle-float1 {
                    animation: float1 5s infinite;
                }

                @keyframes float2 {
                    0%{transform: translate(0, 0)}
                    50%{transform: translate(-5px, -5px)}
                    100%{transform: translate(0, 0)}
                }

                .triangle-float2 {
                    animation: float2 4s infinite;
                }

                @keyframes float3 {
                    0%{transform: translate(0, 0)}
                    50%{transform: translate(0, -10px)}
                    100%{transform: translate(0, 0)}
                }

                .triangle-float3 {
                    animation: float3 6s infinite;
                }</style>
</defs>
</svg>
