<?xml version="1.0" encoding="UTF-8"?>
<svg fill="#095C9E" stroke="#095C9E" stroke-width=".704" viewBox="0 0 32 32" xmlns="http://www.w3.org/2000/svg">
<path d="m16 3c-0.625 0-1.2461 0.21094-1.7812 0.59375l-1.6562 1.1562-1.9062 0.25h-0.03125l-0.03125 0.03125c-1.2734 0.28516-2.2773 1.2891-2.5625 2.5625l-0.03125 0.03125v0.03125l-0.25 1.9375-1.1562 1.5-0.03125 0.03125v0.03125c-0.69922 1.1172-0.73047 2.5586 0.03125 3.625l1.1875 1.6562 0.3125 1.7188-3.2188 4.9062-1.0312 1.5312h4.7812l1.1562 2.6875 0.71875 1.7188 1.0312-1.5625 3.1562-4.75c0.84766 0.34766 1.8047 0.37891 2.625 0l3.1562 4.75 1.0312 1.5625 0.71875-1.7188 1.1562-2.6875h4.7812l-1.0312-1.5312-3.125-4.75 0.25-1.875 1.1562-1.6562 0.03125-0.03125v-0.03125c0.69922-1.1172 0.73047-2.5273-0.03125-3.5938l-1.1562-1.6562-0.375-1.875h0.03125c-0.003906-0.023437-0.027344-0.039062-0.03125-0.0625-0.17969-1.3086-1.2148-2.3711-2.5312-2.5312h-0.03125l-1.875-0.25-1.6562-1.1562c-0.53516-0.38281-1.1562-0.59375-1.7812-0.59375zm0 2.0312c0.23047 0 0.45703 0.070313 0.625 0.1875l1.7812 1.2812 0.21875 0.15625 0.25 0.03125 2.1875 0.3125h0.03125c0.44922 0.050781 0.76172 0.36328 0.8125 0.8125v0.0625l0.40625 2.2188 0.03125 0.21875 0.15625 0.1875 1.2812 1.7812c0.23828 0.33203 0.26953 0.89453-0.03125 1.375l-1.4062 1.9688-0.03125 0.25-0.3125 2.1875v0.03125c-0.019531 0.16406-0.074219 0.31641-0.15625 0.4375l-0.0625 0.03125v0.03125c-0.14453 0.17188-0.34375 0.28516-0.59375 0.3125h-0.0625l-2.2812 0.40625-0.25 0.03125-0.1875 0.15625-1.7812 1.2812c-0.33203 0.23828-0.92578 0.26953-1.4062-0.03125l-1.625-1.25-0.1875-0.15625-0.28125-0.03125-2.1875-0.3125h-0.03125c-0.30859-0.035156-0.54688-0.19531-0.6875-0.4375-0.0625-0.10938-0.10938-0.23828-0.125-0.375v-0.0625l-0.40625-2.2812-0.03125-0.25-0.15625-0.1875-1.2812-1.7812c-0.23828-0.33203-0.26953-0.92578 0.03125-1.4062l1.25-1.625 0.15625-0.1875 0.03125-0.28125 0.28125-2.0938c0.003906-0.015625 0.027344-0.015625 0.03125-0.03125 0.125-0.48828 0.51172-0.875 1-1 0.015625-0.003906 0.015625-0.027344 0.03125-0.03125l2.0938-0.28125 0.25-0.03125 0.21875-0.15625 1.7812-1.2812c0.16797-0.11719 0.39453-0.1875 0.625-0.1875zm6.9062 15.219 1.5312 2.3438h-2.4062l-0.25 0.625-0.6875 1.5938-2.125-3.25 0.46875-0.34375 1.9688-0.34375v0.03125c0.023438-0.003906 0.039063-0.027344 0.0625-0.03125 0.53906-0.074219 1.0273-0.30078 1.4375-0.625zm-13.812 0.03125c0.42578 0.38281 0.96875 0.64844 1.5625 0.71875h0.03125l1.9062 0.25 0.4375 0.34375-2.125 3.2188-0.6875-1.5938-0.25-0.625h-2.4062z"/>
</svg>
