<svg xmlns="http://www.w3.org/2000/svg" version="1.1" xmlns:xlink="http://www.w3.org/1999/xlink" xmlns:svgjs="http://svgjs.dev/svgjs" width="1440" height="560" preserveAspectRatio="none" viewBox="0 0 1440 560"><g mask="url(&quot;#SvgjsMask1000&quot;)" fill="none"><rect width="1440" height="560" x="0" y="0" fill="#1e3266"></rect><path d="M1512 560L0 560 L0 326.49Q57.07 263.56, 120 320.64Q199.39 280.03, 240 359.43Q308.23 307.66, 360 375.9Q398.08 293.98, 480 332.05Q520.71 252.76, 600 293.47Q644.18 265.65, 672 309.84Q733.78 299.62, 744 361.39Q783.88 281.27, 864 321.15Q911.87 297.01, 936 344.88Q1006.35 295.23, 1056 365.58Q1060.51 298.08, 1128 302.59Q1157.11 259.69, 1200 288.8Q1275.97 244.77, 1320 320.75Q1376.45 305.2, 1392 361.65Q1437.33 286.98, 1512 332.3z" fill="#182f5d"></path><path d="M1464 560L0 560 L0 409.43Q32.84 322.27, 120 355.12Q199.36 314.48, 240 393.84Q305.01 338.85, 360 403.86Q381.46 353.32, 432 374.78Q483.53 306.31, 552 357.84Q647.89 333.73, 672 429.62Q715.64 401.26, 744 444.91Q748.14 377.05, 816 381.19Q869.34 314.53, 936 367.87Q990.24 350.11, 1008 404.34Q1053.9 378.25, 1080 424.15Q1083.79 355.94, 1152 359.72Q1191.17 326.89, 1224 366.07Q1308.24 330.31, 1344 414.55Q1387.64 338.19, 1464 381.84z" fill="#25467d"></path><path d="M1512 560L0 560 L0 487.61Q56.02 423.63, 120 479.66Q192.38 432.05, 240 504.43Q248.94 441.37, 312 450.3Q353.84 420.14, 384 461.99Q432.28 390.27, 504 438.55Q555.4 369.96, 624 421.36Q712.54 389.9, 744 478.44Q760.4 422.85, 816 439.25Q861.78 413.03, 888 458.82Q929.87 380.69, 1008 422.55Q1053.63 396.18, 1080 441.8Q1151.01 392.81, 1200 463.83Q1246.7 438.53, 1272 485.23Q1303.26 396.5, 1392 427.76Q1463.25 379.01, 1512 450.26z" fill="#356cb1"></path><path d="M1512 560L0 560 L0 515.6Q52.39 448, 120 500.39Q174.76 483.15, 192 537.92Q236.78 510.7, 264 555.49Q283.69 503.18, 336 522.87Q384.7 451.57, 456 500.28Q552.86 477.13, 576 573.99Q628.65 506.64, 696 559.3Q768.47 511.77, 816 584.24Q816.65 512.89, 888 513.54Q913.51 467.05, 960 492.56Q1056.33 468.88, 1080 565.21Q1125.07 490.28, 1200 535.35Q1285.03 500.38, 1320 585.42Q1320.99 514.41, 1392 515.4Q1441.04 444.44, 1512 493.48z" fill="white"></path></g><defs><mask id="SvgjsMask1000"><rect width="1440" height="560" fill="#ffffff"></rect></mask></defs></svg>