<?xml version="1.0" encoding="UTF-8"?>
<svg fill="#000000" viewBox="0 0 20 20" xmlns="http://www.w3.org/2000/svg">
<path d="m5.6733 0c0.3866 0 0.7 0.31324 0.7 0.69965l-2.6018e-4 1.3094h7.517l1.337e-4 -1.3009c0-0.38641 0.3134-0.69965 0.7-0.69965 0.3866 0 0.7 0.31324 0.7 0.69965l-1.337e-4 1.3009 2.71 1.806e-5c1.1046 0 2 0.89498 2 1.999v13.993c0 1.104-0.89543 1.999-2 1.999h-16c-1.1046 0-2-0.89498-2-1.999v-13.993c0-1.104 0.89543-1.999 2-1.999l2.973-1.806e-5 2.6018e-4 -1.3094c0-0.38641 0.3134-0.69965 0.7-0.69965zm-4.2733 7.742v10.259c0 0.3312 0.26863 0.5997 0.6 0.5997h16c0.33137 0 0.6-0.26849 0.6-0.5997v-10.245l-17.2-0.014zm5.2667 6.8766v1.6661h-1.6667v-1.6661h1.6667zm4.1667 0v1.6661h-1.6667v-1.6661h1.6667zm4.1667 0v1.6661h-1.6667v-1.6661h1.6667zm-8.3333-3.9769v1.6661h-1.6667v-1.6661h1.6667zm4.1667 0v1.6661h-1.6667v-1.6661h1.6667zm4.1667 0v1.6661h-1.6667v-1.6661h1.6667zm-10.027-7.2338-2.973 3.1666e-4c-0.33137 0-0.6 0.26849-0.6 0.5997v2.335l17.2 0.014v-2.349c0-0.3312-0.26863-0.5997-0.6-0.5997l-2.71-3.1666e-4 1.337e-4 0.92897c0 0.38641-0.3134 0.69965-0.7 0.69965-0.3866 0-0.7-0.31324-0.7-0.69965l-1.337e-4 -0.92897h-7.517l2.6018e-4 0.92048c0 0.38641-0.3134 0.69965-0.7 0.69965-0.3866 0-0.7-0.31324-0.7-0.69965l-2.6018e-4 -0.92048z" fill="#494C4D"/>
</svg>
