<?xml version="1.0" encoding="UTF-8"?>
<svg viewBox="0 0 256 240" xmlns="http://www.w3.org/2000/svg">
<path d="m250.07 0-109.85 81.279 20.427-47.9z" fill="#E17726"/>
<path d="m6.191 0.096 89.181 33.289 19.396 48.528zm199.67 172.76 48.551 0.924-16.968 57.642-59.243-16.311zm-155.72 0 27.557 42.255-59.143 16.312-16.865-57.643z" fill="#E27625"/>
<path d="m112.131 69.552l1.984 64.083l-59.371-2.701l16.888-25.478l.214-.245zm31.123-.715l40.9 36.376l.212.244l16.888 25.478l-59.358 2.7zM79.435 173.044l32.418 25.259l-37.658 18.181zm97.136-.004l5.131 43.445l-37.553-18.184z" fill="#E27625"/>
<path d="m144.98 195.92 38.107 18.452-35.447 16.846 0.368-11.134zm-33.967 8e-3 -2.909 23.974 0.239 11.303-35.53-16.833z" fill="#D5BFB2"/>
<path d="m100.01 142 9.958 20.928-33.903-9.932zm55.985 2e-3 24.058 10.994-34.014 9.929z" fill="#233447"/>
<path d="m82.026 172.83-5.48 45.04-29.373-44.055zm91.95 1e-3 34.854 0.984-29.483 44.057zm28.136-44.444-25.365 25.851-19.557-8.937-9.363 19.684-6.138-33.849zm-148.24 0 60.435 2.749-6.139 33.849-9.365-19.681-19.453 8.935z" fill="#CC6228"/>
<path d="m52.166 123.08 28.698 29.121 0.994 28.749zm151.7-0.052-29.746 57.973 1.12-28.8zm-90.956 1.826 1.155 7.27 2.854 18.111-1.835 55.625-8.675-44.685-3e-3 -0.462zm30.171-0.101 6.521 35.96-3e-3 0.462-8.697 44.797-0.344-11.205-1.357-44.862z" fill="#E27525"/>
<path d="m177.79 151.05-0.971 24.978-30.274 23.587-6.12-4.324 6.86-35.335zm-99.471 0 30.399 8.906 6.86 35.335-6.12 4.324-30.275-23.589z" fill="#F5841F"/>
<path d="m67.018 208.86 38.732 18.352-0.164-7.837 3.241-2.845h38.334l3.358 2.835-0.248 7.831 38.487-18.29-18.728 15.476-22.645 15.553h-38.869l-22.63-15.617z" fill="#C0AC9D"/>
<path d="m142.2 193.48 5.476 3.869 3.209 25.604-4.644-3.921h-36.476l-4.556 4 3.104-25.681 5.478-3.871z" fill="#161616"/>
<path d="m242.81 2.25 13.186 39.557-8.235 39.997 5.864 4.523-7.935 6.054 5.964 4.606-7.897 7.191 4.848 3.511-12.866 15.026-52.77-15.365-0.457-0.245-38.027-32.078zm-229.63 0 98.326 72.777-38.028 32.078-0.457 0.245-52.77 15.365-12.866-15.026 4.844-3.508-7.892-7.194 5.952-4.601-8.054-6.071 6.085-4.526-8.326-39.98z" fill="#763E1A"/>
<path d="m180.39 103.99 55.913 16.279 18.165 55.986h-47.924l-33.02 0.416 24.014-46.808zm-104.78 0-17.151 25.873 24.017 46.808-33.005-0.416h-47.838l18.063-55.985zm87.776-70.878-15.639 42.239-3.319 57.06-1.27 17.885-0.101 45.688h-30.111l-0.098-45.602-1.274-17.986-3.32-57.045-15.637-42.239z" fill="#F5841F"/>
</svg>
