<?xml version="1.0" encoding="UTF-8"?>
<svg clip-rule="evenodd" fill="#000000" fill-rule="evenodd" stroke-linejoin="round" stroke-miterlimit="2" version="1.1" viewBox="0 0 32 32" xml:space="preserve" xmlns="http://www.w3.org/2000/svg"> <g transform="translate(-192)"> <g transform="matrix(1.1 0 0 1.1 -19.5 -.3)"> <path d="m205 4.818c0-0.482-0.192-0.944-0.533-1.285s-0.803-0.533-1.285-0.533h-6.364c-0.482 0-0.944 0.192-1.285 0.533s-0.533 0.803-0.533 1.285v6.364c0 0.482 0.192 0.944 0.533 1.285s0.803 0.533 1.285 0.533h6.364c0.482 0 0.944-0.192 1.285-0.533s0.533-0.803 0.533-1.285v-6.364z" fill="#fff"/> </g> <g transform="matrix(1.1 0 0 1.1 -4.5 -.3)"> <path d="m205 4.818c0-0.482-0.192-0.944-0.533-1.285s-0.803-0.533-1.285-0.533h-6.364c-0.482 0-0.944 0.192-1.285 0.533s-0.533 0.803-0.533 1.285v6.364c0 0.482 0.192 0.944 0.533 1.285s0.803 0.533 1.285 0.533h6.364c0.482 0 0.944-0.192 1.285-0.533s0.533-0.803 0.533-1.285v-6.364z" fill="#fff"/> </g> <g transform="matrix(1.1,0,0,1.1,-19.5,14.7)"> <path d="m205 4.818c0-0.482-0.192-0.944-0.533-1.285s-0.803-0.533-1.285-0.533h-6.364c-0.482 0-0.944 0.192-1.285 0.533s-0.533 0.803-0.533 1.285v6.364c0 0.482 0.192 0.944 0.533 1.285s0.803 0.533 1.285 0.533h6.364c0.482 0 0.944-0.192 1.285-0.533s0.533-0.803 0.533-1.285v-6.364z" fill="#fff"/> </g> <path d="m207 20c0-0.796-0.316-1.559-0.879-2.121-0.562-0.563-1.325-0.879-2.121-0.879h-7c-0.796 0-1.559 0.316-2.121 0.879-0.563 0.562-0.879 1.325-0.879 2.121v7c0 0.796 0.316 1.559 0.879 2.121 0.562 0.563 1.325 0.879 2.121 0.879h7c0.796 0 1.559-0.316 2.121-0.879 0.563-0.562 0.879-1.325 0.879-2.121v-7zm12 9v-1h2c0.552 0 1-0.448 1-1s-0.448-1-1-1h-3c-0.552 0-1 0.448-1 1v2c0 0.552 0.448 1 1 1s1-0.448 1-1zm-9-2v2c0 0.552 0.448 1 1 1h4c0.552 0 1-0.448 1-1v-2c0-0.552-0.448-1-1-1s-1 0.448-1 1v1h-2v-1c0-0.552-0.448-1-1-1s-1 0.448-1 1zm-5-7v7c0 0.265-0.105 0.52-0.293 0.707-0.187 0.188-0.442 0.293-0.707 0.293h-7c-0.265 0-0.52-0.105-0.707-0.293-0.188-0.187-0.293-0.442-0.293-0.707v-7c0-0.265 0.105-0.52 0.293-0.707 0.187-0.188 0.442-0.293 0.707-0.293h7c0.265 0 0.52 0.105 0.707 0.293 0.188 0.187 0.293 0.442 0.293 0.707zm-1 2c0-0.53-0.211-1.039-0.586-1.414s-0.884-0.586-1.414-0.586h-3c-0.53 0-1.039 0.211-1.414 0.586s-0.586 0.884-0.586 1.414v3c0 0.53 0.211 1.039 0.586 1.414s0.884 0.586 1.414 0.586h3c0.53 0 1.039-0.211 1.414-0.586s0.586-0.884 0.586-1.414v-3zm-2 0v3h-3v-3h3zm10 2v-2c0-0.552-0.448-1-1-1s-1 0.448-1 1v2c0 0.552 0.448 1 1 1s1-0.448 1-1zm3 0v-1h1c0.552 0 1-0.448 1-1s-0.448-1-1-1h-2c-0.552 0-1 0.448-1 1v2c0 0.552 0.448 1 1 1s1-0.448 1-1zm3 1h3c0.552 0 1-0.448 1-1v-2c0-0.552-0.448-1-1-1s-1 0.448-1 1v1h-2c-0.552 0-1 0.448-1 1s0.448 1 1 1zm3-7h-10c-0.552 0-1 0.448-1 1s0.448 1 1 1h10c0.552 0 1-0.448 1-1s-0.448-1-1-1zm-14-13c0-0.796-0.316-1.559-0.879-2.121-0.562-0.563-1.325-0.879-2.121-0.879h-7c-0.796 0-1.559 0.316-2.121 0.879-0.563 0.562-0.879 1.325-0.879 2.121v7c0 0.796 0.316 1.559 0.879 2.121 0.562 0.563 1.325 0.879 2.121 0.879h7c0.796 0 1.559-0.316 2.121-0.879 0.563-0.562 0.879-1.325 0.879-2.121v-7zm15 0c0-0.796-0.316-1.559-0.879-2.121-0.562-0.563-1.325-0.879-2.121-0.879h-7c-0.796 0-1.559 0.316-2.121 0.879-0.563 0.562-0.879 1.325-0.879 2.121v7c0 0.796 0.316 1.559 0.879 2.121 0.562 0.563 1.325 0.879 2.121 0.879h7c0.796 0 1.559-0.316 2.121-0.879 0.563-0.562 0.879-1.325 0.879-2.121v-7zm-17 0v7c0 0.265-0.105 0.52-0.293 0.707-0.187 0.188-0.442 0.293-0.707 0.293h-7c-0.265 0-0.52-0.105-0.707-0.293-0.188-0.187-0.293-0.442-0.293-0.707v-7c0-0.265 0.105-0.52 0.293-0.707 0.187-0.188 0.442-0.293 0.707-0.293h7c0.265 0 0.52 0.105 0.707 0.293 0.188 0.187 0.293 0.442 0.293 0.707zm15 0v7c0 0.265-0.105 0.52-0.293 0.707-0.187 0.188-0.442 0.293-0.707 0.293h-7c-0.265 0-0.52-0.105-0.707-0.293-0.188-0.187-0.293-0.442-0.293-0.707v-7c0-0.265 0.105-0.52 0.293-0.707 0.187-0.188 0.442-0.293 0.707-0.293h7c0.265 0 0.52 0.105 0.707 0.293 0.188 0.187 0.293 0.442 0.293 0.707zm-16 2c0-0.53-0.211-1.039-0.586-1.414s-0.884-0.586-1.414-0.586h-3c-0.53 0-1.039 0.211-1.414 0.586s-0.586 0.884-0.586 1.414v3c0 0.53 0.211 1.039 0.586 1.414s0.884 0.586 1.414 0.586h3c0.53 0 1.039-0.211 1.414-0.586s0.586-0.884 0.586-1.414v-3zm15 0c0-0.53-0.211-1.039-0.586-1.414s-0.884-0.586-1.414-0.586h-3c-0.53 0-1.039 0.211-1.414 0.586s-0.586 0.884-0.586 1.414v3c0 0.53 0.211 1.039 0.586 1.414s0.884 0.586 1.414 0.586h3c0.53 0 1.039-0.211 1.414-0.586s0.586-0.884 0.586-1.414v-3zm-17 0v3h-3v-3h3zm15 0v3h-3v-3h3z" fill="#DC382C"/> </g> </svg>
