<?xml version="1.0" encoding="UTF-8"?>
<svg enable-background="new 0 0 824 618" version="1.0" viewBox="0 0 824 618" xml:space="preserve" xmlns="http://www.w3.org/2000/svg">
<style type="text/css">
	.st0{fill-rule:evenodd;clip-rule:evenodd;fill:url(#a);}
	.st1{fill:#FFFFFF;}
</style>

	
		<radialGradient id="a" cx="13.279" cy="609.42" r="1" gradientTransform="matrix(512 0 0 -512 -6643 312330)" gradientUnits="userSpaceOnUse">
		<stop stop-color="#5D9DF6" offset="0"/>
		<stop stop-color="#006FFF" offset="1"/>
	</radialGradient>
	<path class="st0" d="M412,53c141.4,0,256,114.6,256,256S553.4,565,412,565S156,450.4,156,309S270.6,53,412,53z"/>
	<path class="st1" d="m318.7 250.7c51.5-50.3 135.1-50.3 186.6 0l6.2 6.1c2.6 2.5 2.6 6.6 0 9.1l-21.2 20.7c-1.3 1.3-3.4 1.3-4.7 0l-8.5-8.3c-36-35.1-94.2-35.1-130.2 0l-9.1 8.9c-1.3 1.3-3.4 1.3-4.7 0l-21.2-20.7c-2.6-2.5-2.6-6.6 0-9.1l6.8-6.7zm230.5 42.8 18.9 18.4c2.6 2.5 2.6 6.6 0 9.1l-85.1 83.1c-2.6 2.5-6.8 2.5-9.3 0l-60.4-59c-0.6-0.6-1.7-0.6-2.3 0l-60.4 59c-2.6 2.5-6.8 2.5-9.3 0l-85.4-83.1c-2.6-2.5-2.6-6.6 0-9.1l18.9-18.4c2.6-2.5 6.8-2.5 9.3 0l60.4 59c0.6 0.6 1.7 0.6 2.3 0l60.4-59c2.6-2.5 6.8-2.5 9.3 0l60.4 59c0.6 0.6 1.7 0.6 2.3 0l60.4-59c2.8-2.5 7-2.5 9.6 0z"/>

</svg>
